<svg width="10" height="10" viewBox="0 0 10 10" fill="none" xmlns="http://www.w3.org/2000/svg">
<g id="bxs:up-arrow">
<path id="Vector" d="M1.24894 7.91659H8.74894C8.82487 7.91635 8.8993 7.89541 8.96422 7.85601C9.02914 7.81662 9.08208 7.76027 9.11735 7.69303C9.15262 7.62578 9.16889 7.55019 9.1644 7.47439C9.1599 7.39859 9.13482 7.32545 9.09185 7.26284L5.34185 1.84617C5.18644 1.62159 4.81227 1.62159 4.65644 1.84617L0.906437 7.26284C0.863031 7.32531 0.837576 7.39849 0.832839 7.47442C0.828102 7.55035 0.844264 7.62612 0.879568 7.69351C0.914872 7.7609 0.967969 7.81732 1.03309 7.85665C1.09821 7.89598 1.17286 7.91671 1.24894 7.91659Z" fill="black" fill-opacity="0.8"/>
</g>
</svg>
