<svg width="10" height="10" viewBox="0 0 10 10" fill="none" xmlns="http://www.w3.org/2000/svg">
<g id="bxs:up-arrow">
<path id="Vector" d="M8.75106 2.08341L1.25106 2.08341C1.17513 2.08365 1.1007 2.10459 1.03578 2.14399C0.970864 2.18338 0.917921 2.23973 0.882648 2.30697C0.847376 2.37422 0.831111 2.44981 0.835604 2.52561C0.840096 2.60141 0.865177 2.67455 0.908147 2.73716L4.65815 8.15383C4.81356 8.37841 5.18773 8.37841 5.34356 8.15383L9.09356 2.73716C9.13697 2.67469 9.16242 2.60151 9.16716 2.52558C9.1719 2.44965 9.15574 2.37388 9.12043 2.30649C9.08513 2.2391 9.03203 2.18268 8.96691 2.14335C8.90179 2.10402 8.82714 2.08329 8.75106 2.08341Z" fill="black" fill-opacity="0.8"/>
</g>
</svg>
