<svg width="9" height="9" viewBox="0 0 9 9" fill="none" xmlns="http://www.w3.org/2000/svg">
<g id="delete" clip-path="url(#clip0_1202_3656)">
<path id="Vector" d="M5.60065 4.5005L8.0716 2.02955C8.42407 1.67707 8.42407 1.1056 8.0716 0.753127C7.7191 0.40065 7.14767 0.40065 6.79517 0.753127L4.32423 3.22408L1.85328 0.753127C1.5008 0.40065 0.929334 0.40065 0.576858 0.753127C0.224381 1.1056 0.224381 1.67707 0.576858 2.02955L3.04781 4.5005L0.576858 6.97144C0.224381 7.32392 0.224381 7.89539 0.576858 8.24787C0.753096 8.42409 0.984078 8.51222 1.21506 8.51222C1.44604 8.51222 1.67704 8.4241 1.85326 8.24787L4.32423 5.77692L6.79517 8.24787C6.97141 8.42409 7.20239 8.51222 7.43338 8.51222C7.66436 8.51222 7.89534 8.4241 8.07158 8.24787C8.42405 7.89539 8.42405 7.32392 8.07158 6.97144L5.60065 4.5005Z" fill="#B3261E"/>
</g>
<defs>
<clipPath id="clip0_1202_3656">
<rect width="8.64492" height="8.64492" fill="white" transform="translate(0 0.177734)"/>
</clipPath>
</defs>
</svg>
