<svg width="25" height="25" viewBox="0 0 25 25" fill="none" xmlns="http://www.w3.org/2000/svg">
<g id="24/ edit">
<path id="Vector" d="M17.5 3.5003C17.7626 3.23766 18.0744 3.02932 18.4176 2.88718C18.7608 2.74503 19.1286 2.67188 19.5 2.67188C19.8714 2.67187 20.2392 2.74503 20.5824 2.88718C20.9256 3.02932 21.2374 3.23766 21.5 3.5003C21.7626 3.76295 21.971 4.07475 22.1131 4.41791C22.2553 4.76107 22.3284 5.12887 22.3284 5.5003C22.3284 5.87174 22.2553 6.23953 22.1131 6.58269C21.971 6.92585 21.7626 7.23766 21.5 7.5003L8 21.0003L2.5 22.5003L4 17.0003L17.5 3.5003Z" stroke="white" stroke-width="2" stroke-linecap="round" stroke-linejoin="round"/>
</g>
</svg>
