<svg width="22" height="22" viewBox="0 0 22 22" fill="none" xmlns="http://www.w3.org/2000/svg">
<g id="Iconsax/Linear/eyeslash">
<path id="Vector" d="M13.3187 8.74598L8.68032 13.2531C8.08265 12.638 7.75379 11.8107 7.7661 10.9531C7.77219 10.5285 7.86186 10.1092 8.02998 9.71929C8.19811 9.32932 8.44139 8.9763 8.74595 8.68036C9.05051 8.38442 9.41037 8.15136 9.80499 7.9945C10.1996 7.83764 10.6213 7.76004 11.0459 7.76613C11.9034 7.77844 12.721 8.1309 13.3187 8.74598Z" stroke="black" stroke-opacity="0.8" stroke-width="1.3" stroke-linecap="round" stroke-linejoin="round"/>
<path id="Vector_2" d="M16.3394 5.44534C14.7751 4.22976 12.977 3.55316 11.1064 3.52632C7.9163 3.48054 4.91616 5.31756 2.8 8.54117C1.96839 9.80371 1.93765 11.9455 2.73269 13.2314C3.43053 14.3622 4.24806 15.3411 5.1406 16.1312M7.6662 17.7583C8.69019 18.2069 9.78029 18.4575 10.8918 18.4735C14.0819 18.5193 17.082 16.6822 19.1982 13.4586C20.0298 12.1961 20.0605 10.0543 19.2655 8.76843C18.974 8.29423 18.655 7.84675 18.3266 7.42625" stroke="black" stroke-opacity="0.8" stroke-width="1.3" stroke-linecap="round" stroke-linejoin="round"/>
<path id="Vector_3" d="M14.162 11.6778C14.0305 12.3064 13.7142 12.8814 13.2536 13.329C12.793 13.7766 12.2091 14.0763 11.577 14.1896M8.67991 13.2532L1.83241 19.907M20.1657 2.09239L13.3182 8.74613" stroke="black" stroke-opacity="0.8" stroke-width="1.3" stroke-linecap="round" stroke-linejoin="round"/>
</g>
</svg>
