<svg width="20" height="20" viewBox="0 0 20 20" fill="none" xmlns="http://www.w3.org/2000/svg">
<g id="fi-sr-angle-small-left">
<path id="Vector" d="M9.13187 10.2951C9.09307 10.2564 9.06228 10.2104 9.04128 10.1598C9.02027 10.1092 9.00946 10.0549 9.00946 10.0001C9.00946 9.9453 9.02027 9.89103 9.04128 9.84041C9.06228 9.78979 9.09307 9.74381 9.13187 9.70511L12.9535 5.88427C13.188 5.64989 13.3198 5.33195 13.3199 5.0004C13.32 4.66885 13.1883 4.35085 12.9539 4.11636C12.7196 3.88186 12.4016 3.75008 12.0701 3.75C11.7385 3.74992 11.4205 3.88155 11.186 4.11594L7.36437 7.93761C6.81835 8.48514 6.51172 9.22684 6.51172 10.0001C6.51172 10.7734 6.81835 11.5151 7.36437 12.0626L11.186 15.8843C11.4205 16.1187 11.7385 16.2503 12.0701 16.2502C12.4016 16.2501 12.7196 16.1184 12.9539 15.8839C13.1883 15.6494 13.32 15.3314 13.3199 14.9998C13.3198 14.6683 13.188 14.3503 12.9535 14.1159L9.13187 10.2951Z" fill="#3BA1FF"/>
</g>
</svg>
