<svg width="17" height="17" viewBox="0 0 17 17" fill="none" xmlns="http://www.w3.org/2000/svg">
<g id="restore" clip-path="url(#clip0_1611_18399)">
<path id="Vector" d="M13.457 5.66683L10.6237 8.50016H12.7487C12.7487 10.8447 10.8433 12.7502 8.4987 12.7502C7.78328 12.7502 7.10328 12.5731 6.51536 12.2543L5.4812 13.2885C6.35245 13.841 7.38661 14.1668 8.4987 14.1668C11.6295 14.1668 14.1654 11.631 14.1654 8.50016H16.2904L13.457 5.66683ZM4.2487 8.50016C4.2487 6.15558 6.15411 4.25016 8.4987 4.25016C9.21411 4.25016 9.89411 4.42725 10.482 4.746L11.5162 3.71183C10.6449 3.15933 9.61078 2.8335 8.4987 2.8335C5.36786 2.8335 2.83203 5.36933 2.83203 8.50016H0.707031L3.54036 11.3335L6.3737 8.50016H4.2487Z" fill="black"/>
</g>
<defs>
<clipPath id="clip0_1611_18399">
<rect width="17" height="17" fill="white"/>
</clipPath>
</defs>
</svg>
