<svg width="32" height="39" viewBox="0 0 32 39" fill="none" xmlns="http://www.w3.org/2000/svg">
<g id="Logo">
<path id="Vector" d="M15.9396 29.2931C16.2099 29.2709 16.4516 29.3688 16.5739 29.6225L16.5849 29.6459C16.6617 29.8043 16.655 29.9392 16.6553 30.1129L16.6576 35.8907C16.6583 36.4213 16.6885 36.9676 16.6596 37.4957C16.6445 37.7713 16.2753 37.9385 16.0447 37.989C15.2473 38.0253 15.3239 37.2553 15.3235 36.7544L15.3186 32.0662C15.3196 31.4341 15.2954 30.7896 15.3371 30.1594C15.3669 29.7067 15.4302 29.3808 15.9396 29.2931Z" fill="#3BA1FF"/>
<path id="Vector_2" d="M10.2157 9.41512C10.5581 9.38381 10.8951 9.52191 11.195 9.67296C12.9144 10.5394 15.6923 13.3671 15.4648 15.482C15.4229 15.8711 15.2847 16.0536 14.8862 16.1516C13.8318 16.2942 11.9749 14.8177 11.3302 13.9237C10.7676 13.1433 9.93703 11.4197 9.66611 10.4901C9.5238 10.0017 9.6875 9.54407 10.2157 9.41512Z" fill="#3BA1FF"/>
<path id="Vector_3" d="M21.6113 9.43225C21.8877 9.42075 22.1686 9.57256 22.3015 9.81319L22.315 9.83825C22.5209 10.215 22.3858 10.5473 22.2387 10.9256L21.771 11.9967C21.4691 12.639 21.1762 13.3445 20.7427 13.9105C20.1235 14.7191 18.3978 16.0341 17.4087 16.172C16.6302 16.2293 16.5557 15.8018 16.588 15.1266C16.6857 13.0864 19.4873 9.76162 21.6113 9.43225Z" fill="#3BA1FF"/>
<path id="Vector_4" d="M10.4231 14.6309L10.4412 14.6293C11.2785 14.5713 12.1332 15.2764 12.7229 15.7861C14.1491 17.0187 15.3562 18.5877 15.4752 20.5285C15.5092 21.0812 15.4538 21.8476 14.7528 21.8872C14.6632 21.885 14.5855 21.8779 14.4982 21.8554L14.4618 21.8457C12.4765 21.3309 10.9429 18.5233 10.1668 16.7238L9.84985 15.9529C9.60385 15.3207 9.606 14.7371 10.4231 14.6309Z" fill="#3BA1FF"/>
<path id="Vector_5" d="M21.2817 14.6092C21.738 14.5727 22.1684 14.807 22.2996 15.2629C22.3913 15.5815 22.1404 16.0869 22.0234 16.3858C21.321 18.179 19.6484 21.2889 17.5767 21.8604C17.4541 21.8924 17.2849 21.9311 17.1597 21.9076L17.1369 21.9029C16.7933 21.8387 16.597 21.5883 16.5707 21.2409L16.5683 21.2043C16.3915 18.853 17.9647 16.6529 19.8158 15.3288C20.2634 15.0088 20.7398 14.7322 21.2817 14.6092Z" fill="#3BA1FF"/>
<path id="Vector_6" d="M10.2262 20.4383L10.4501 20.4258C11.0987 20.4316 11.6994 20.8623 12.1885 21.2438C13.7164 22.4352 15.1409 24.1252 15.4003 26.0836C15.4668 26.5855 15.6968 28.8475 14.8595 28.8099C12.997 28.3612 10.6592 24.0301 9.96737 22.2872C9.7069 21.631 9.20813 20.734 10.2262 20.4383Z" fill="#3BA1FF"/>
<path id="Vector_7" d="M21.6297 20.4023C21.9871 20.3628 22.2628 20.6339 22.3918 20.9416C22.5221 21.252 22.237 21.8159 22.1179 22.1088L21.7707 22.94C21.0815 24.5741 18.9931 28.0788 17.3075 28.7659L17.2506 28.7784C17.1792 28.7941 17.1152 28.8114 17.0419 28.7984L16.9551 28.7794C16.8378 28.7405 16.7248 28.6242 16.6697 28.5168L16.6554 28.4882C16.4124 28.0236 16.5489 26.3192 16.6537 25.7864C17.0594 23.7239 19.5427 20.6645 21.6297 20.4023Z" fill="#3BA1FF"/>
<path id="Vector_8" d="M15.9032 0.861603C16.3812 0.830349 16.7042 1.22657 16.9992 1.54099C18.9819 3.65491 20.1084 6.61468 18.8108 9.39643C18.3692 10.3432 17.1765 12.1814 16.1059 12.5729L16.0699 12.5832C15.6676 12.6703 14.8691 11.7472 14.6469 11.4854C11.8523 8.1936 12.0599 5.03031 14.8939 1.68039C15.1733 1.35001 15.4626 0.97049 15.9032 0.861603Z" fill="#3BA1FF"/>
<path id="Vector_9" d="M30.5844 21.9101C30.9758 21.8989 31.4058 21.8647 31.6098 22.2733L31.6201 22.2944C31.8172 22.6945 31.6116 23.2988 31.5196 23.7085C30.286 29.2004 27.1024 33.1267 21.6275 34.6439C20.6507 34.9146 19.6722 35.0792 18.6718 35.2327L18.2004 35.2912C17.5495 35.3201 17.6518 34.5106 17.7283 34.1013L17.962 33.0445C18.9771 28.8545 21.1121 25.0415 25.2192 23.1573C26.9029 22.3848 28.7274 21.9478 30.5844 21.9101Z" fill="#3BA1FF"/>
<path id="Vector_10" d="M0.99938 21.8888L1.1937 21.8828C3.86543 21.9238 6.64369 22.7343 8.80239 24.3257C11.5811 26.3744 13.1124 29.5863 13.9873 32.8302L14.2492 33.9527C14.3778 34.613 14.5839 35.3204 13.6792 35.2538L12.5591 35.0973C7.08554 34.2459 3.36319 31.6003 1.30445 26.4253C0.914687 25.4456 0.641772 24.4954 0.45038 23.4595L0.323995 22.7565C0.257265 22.2551 0.480888 21.9394 0.99938 21.8888Z" fill="#3BA1FF"/>
</g>
</svg>
